# xmcd CD database file
#
# Track frame offsets:
#	150
#	16822
#	32775
#	50497
#
# Disc length: 1060 seconds
#
# Revision: 2
# Processed by: cddbd v1.4PL0 Copyright (c) Steve Scherf et al.
# Submitted via: CDex 1.40Beta9
#
DISCID=28042204
DTITLE=Subzonic - Unglück im Päch
DYEAR=1999
DGENRE=Freestyle
TTITLE0=Unglück im Päch
TTITLE1=Gheimnis
TTITLE2=Ziel Voraa
TTITLE3=Ziit
EXTD=YEAR: 1999 ID3G: 119
EXTT0=
EXTT1=
EXTT2=
EXTT3=
PLAYORDER=
